<svg id="Layer_1" data-name="Layer 1" xmlns="http://www.w3.org/2000/svg" viewBox="0 0 75.32 75.32"><defs><style>.cls-1{fill:#f6861f;}</style></defs><title>Artboard 1</title><path class="cls-1" d="M51.29,49.6V52A10.32,10.32,0,0,1,41,62.32H35.32A10.32,10.32,0,0,1,25,52V49.6A3.6,3.6,0,0,0,21.4,46h0a3.6,3.6,0,0,0-3.6,3.6V52A17.53,17.53,0,0,0,35.32,69.53H41A17.53,17.53,0,0,0,58.5,52V49.6A3.6,3.6,0,0,0,54.9,46h0A3.6,3.6,0,0,0,51.29,49.6Z"/><path class="cls-1" d="M55.21,43.95H20.87a7.21,7.21,0,0,1-7.21-7.21H62.42A7.21,7.21,0,0,1,55.21,43.95Z"/><path class="cls-1" d="M20.87,37.31a6.78,6.78,0,0,1,13.56,0h7.21a14,14,0,0,0-28,0Z"/><path class="cls-1" d="M41.66,37.31a6.78,6.78,0,0,1,13.56,0h7.21a14,14,0,0,0-28,0Z"/><rect class="cls-1" x="34.33" y="4.69" width="7.21" height="18.71" rx="3.6" ry="3.6"/></svg>