<?xml version="1.0" encoding="UTF-8" standalone="no"?>
<svg
   xmlns:dc="http://purl.org/dc/elements/1.1/"
   xmlns:cc="http://creativecommons.org/ns#"
   xmlns:rdf="http://www.w3.org/1999/02/22-rdf-syntax-ns#"
   xmlns:svg="http://www.w3.org/2000/svg"
   xmlns="http://www.w3.org/2000/svg"
   xmlns:sodipodi="http://sodipodi.sourceforge.net/DTD/sodipodi-0.dtd"
   xmlns:inkscape="http://www.inkscape.org/namespaces/inkscape"
   width="46"
   height="46"
   viewBox="0 0 46 46"
   id="svg2"
   version="1.1"
   inkscape:version="0.92.4 (f8dce91, 2019-08-02)"
   sodipodi:docname="carbon.svg"
   style="fill:none">
  <metadata
     id="metadata12">
    <rdf:RDF>
      <cc:Work
         rdf:about="">
        <dc:format>image/svg+xml</dc:format>
        <dc:type
           rdf:resource="http://purl.org/dc/dcmitype/StillImage" />
        <dc:title />
      </cc:Work>
    </rdf:RDF>
  </metadata>
  <defs
     id="defs10" />
  <sodipodi:namedview
     pagecolor="#ffffff"
     bordercolor="#666666"
     borderopacity="1"
     objecttolerance="10"
     gridtolerance="10"
     guidetolerance="10"
     inkscape:pageopacity="0"
     inkscape:pageshadow="2"
     inkscape:window-width="1853"
     inkscape:window-height="1025"
     id="namedview8"
     showgrid="false"
     inkscape:zoom="8"
     inkscape:cx="-3.8033292"
     inkscape:cy="2.4923757"
     inkscape:window-x="67"
     inkscape:window-y="27"
     inkscape:window-maximized="1"
     inkscape:current-layer="svg2" />
  <path
     d="M 17.257965,35.370845 H 9.2565945 c -0.7657996,0 -1.4743996,-0.3991 -1.8626796,-1.0491 l -5.9322829,-9.931 c -0.3978225,-0.666 -0.3978225,-1.492 0,-2.158 l 5.9322829,-9.931 c 0.38828,-0.65 1.09688,-1.0491 1.8626796,-1.0491 h 8.0013705 c 1.498,0 2.8857,-0.7875 3.6539,-2.07352 l 4.4908,-7.5177803 c 0.3882,-0.649998 1.0969,-1.04909997 1.8627,-1.04909997 h 10.4942 c 0.7658,0 1.4744,0.39910197 1.8627,1.04909997 l 5.9323,9.9310003 c 0.3978,0.666 0.3978,1.492 0,2.158 l -4.4077,7.3788 c -0.803,1.3443 -0.803,3.0209 0,4.3653 l 4.4077,7.3787 c 0.3978,0.666 0.3978,1.492 0,2.158 l -5.9323,9.931 c -0.3883,0.65 -1.0969,1.0491 -1.8627,1.0491 h -10.4942 c -0.7658,0 -1.4745,-0.3991 -1.8627,-1.0491 l -4.4908,-7.5178 c -0.7682,-1.286 -2.1559,-2.0735 -3.6539,-2.0735 z m -8.2160505,-20.2317 -4.2373396,7.0936 c -0.39782,0.666 -0.39782,1.492 0,2.158 l 4.2373396,7.0936 c 0.38828,0.65 1.0968895,1.0491 1.8626795,1.0491 h 7.198271 c 0.7658,0 1.4744,-0.3991 1.8627,-1.0491 l 4.2373,-7.0936 c 0.3979,-0.666 0.3979,-1.492 0,-2.158 l -4.2373,-7.0936 c -0.3883,-0.65 -1.0969,-1.0491 -1.8627,-1.0491 h -7.198271 c -0.76579,0 -1.4743995,0.3991 -1.8626795,1.0491 z M 27.050665,4.4987847 l -4.2374,7.0935603 c -0.3978,0.666 -0.3978,1.492 0,2.158 l 4.2374,7.0936 c 0.3882,0.65 1.0969,1.0491 1.8627,1.0491 h 7.1982 c 0.7658,0 1.4744,-0.3991 1.8627,-1.0491 l 4.2373,-7.0936 c 0.3979,-0.666 0.3979,-1.492 0,-2.158 l -4.2373,-7.0935603 c -0.3883,-0.65 -1.0969,-1.0491 -1.8627,-1.0491 h -7.1982 c -0.7658,0 -1.4745,0.3991 -1.8627,1.0491 z m 0,21.2807603 -4.2374,7.0936 c -0.3978,0.666 -0.3978,1.492 0,2.158 l 4.2374,7.0936 c 0.3882,0.65 1.0969,1.0491 1.8627,1.0491 h 7.1982 c 0.7658,0 1.4744,-0.3991 1.8627,-1.0491 l 4.2373,-7.0936 c 0.3979,-0.666 0.3979,-1.492 0,-2.158 l -4.2373,-7.0936 c -0.3883,-0.65 -1.0969,-1.0491 -1.8627,-1.0491 h -7.1982 c -0.7658,0 -1.4745,0.3991 -1.8627,1.0491 z"
     id="path6-8"
     inkscape:connector-curvature="0"
     style="fill:#999999" />
  <path
     d="m 16.0947,34.7586 -8.00137,0 c -0.7658,0 -1.4744,-0.3991 -1.86268,-1.0491 l -5.932283,-9.931 c -0.3978225,-0.666 -0.3978225,-1.492 0,-2.158 l 5.932283,-9.931 c 0.38828,-0.65 1.09688,-1.0491 1.86268,-1.0491 l 8.00137,0 c 1.498,0 2.8857,-0.7875 3.6539,-2.07352 L 24.2394,1.0491 C 24.6276,0.399102 25.3363,0 26.1021,0 l 10.4942,0 c 0.7658,0 1.4744,0.399102 1.8627,1.0491 l 5.9323,9.931 c 0.3978,0.666 0.3978,1.492 0,2.158 l -4.4077,7.3788 c -0.803,1.3443 -0.803,3.0209 0,4.3653 l 4.4077,7.3787 c 0.3978,0.666 0.3978,1.492 0,2.158 l -5.9323,9.931 c -0.3883,0.65 -1.0969,1.0491 -1.8627,1.0491 l -10.4942,0 c -0.7658,0 -1.4745,-0.3991 -1.8627,-1.0491 l -4.4908,-7.5178 c -0.7682,-1.286 -2.1559,-2.0735 -3.6539,-2.0735 z M 7.87865,14.5269 3.64131,21.6205 c -0.39782,0.666 -0.39782,1.492 0,2.158 l 4.23734,7.0936 c 0.38828,0.65 1.09689,1.0491 1.86268,1.0491 l 7.19827,0 c 0.7658,0 1.4744,-0.3991 1.8627,-1.0491 l 4.2373,-7.0936 c 0.3979,-0.666 0.3979,-1.492 0,-2.158 l -4.2373,-7.0936 c -0.3883,-0.65 -1.0969,-1.0491 -1.8627,-1.0491 l -7.19827,0 c -0.76579,0 -1.4744,0.3991 -1.86268,1.0491 z M 25.8874,3.88654 21.65,10.9801 c -0.3978,0.666 -0.3978,1.492 0,2.158 l 4.2374,7.0936 c 0.3882,0.65 1.0969,1.0491 1.8627,1.0491 l 7.1982,0 c 0.7658,0 1.4744,-0.3991 1.8627,-1.0491 l 4.2373,-7.0936 c 0.3979,-0.666 0.3979,-1.492 0,-2.158 L 36.811,3.88654 c -0.3883,-0.65 -1.0969,-1.0491 -1.8627,-1.0491 l -7.1982,0 c -0.7658,0 -1.4745,0.3991 -1.8627,1.0491 z m 0,21.28076 -4.2374,7.0936 c -0.3978,0.666 -0.3978,1.492 0,2.158 l 4.2374,7.0936 c 0.3882,0.65 1.0969,1.0491 1.8627,1.0491 l 7.1982,0 c 0.7658,0 1.4744,-0.3991 1.8627,-1.0491 l 4.2373,-7.0936 c 0.3979,-0.666 0.3979,-1.492 0,-2.158 L 36.811,25.1673 c -0.3883,-0.65 -1.0969,-1.0491 -1.8627,-1.0491 l -7.1982,0 c -0.7658,0 -1.4745,0.3991 -1.8627,1.0491 z"
     id="path6"
     inkscape:connector-curvature="0"
     style="fill:#242426" />
</svg>
