<?xml version="1.0" encoding="utf-8"?>
<!-- Generator: Adobe Illustrator 23.0.2, SVG Export Plug-In . SVG Version: 6.00 Build 0)  -->
<svg version="1.1" id="Layer_1" xmlns="http://www.w3.org/2000/svg" xmlns:xlink="http://www.w3.org/1999/xlink" x="0px" y="0px"
	 viewBox="0 0 86.84 86.84" style="enable-background:new 0 0 86.84 86.84;" xml:space="preserve">
<style type="text/css">
	.st0{fill:#D1D228;}
	.st1{fill:#FFFFFF;}
</style>
<circle class="st0" cx="43.42" cy="43.42" r="43.42"/>
<g>
	<path class="st1" d="M55.39,15.82c-0.85,1.35-0.47,3.11,0.87,3.96c1.34,0.85,3.1,0.47,3.96-0.87c0.86-1.34,0.49-3.11-0.83-3.97
		C58.02,14.06,56.26,14.45,55.39,15.82z"/>
	<path class="st1" d="M54.71,11.54c1.32,0.85,3.1,0.45,3.96-0.89c0.86-1.35,0.49-3.12-0.83-3.97c-1.33-0.86-3.16-0.45-4.01,0.9
		C52.99,8.9,53.39,10.69,54.71,11.54z"/>
	<path class="st1" d="M56.29,30.89c0.06-0.19,0.13-0.38,0.22-0.65c2.02,0.69,3.98,1.36,5.94,2.03c0.88-2.58,1.73-5.08,2.59-7.61
		c-4.52-1.54-9.02-3.07-13.53-4.61c0.05-0.07,0.12-0.13,0.17-0.21c0.86-1.34,0.49-3.11-0.83-3.97c-1.33-0.86-3.16-0.45-4.01,0.9
		c-0.3,0.48-0.44,1.01-0.43,1.54c-2.56-0.87-5.12-1.75-7.68-2.62c-0.87,2.55-1.73,5.07-2.6,7.64c1.97,0.67,3.9,1.33,5.86,2
		c-0.04,0.18-0.06,0.31-0.1,0.43c-0.99,2.92-1.98,5.84-2.99,8.75c-0.08,0.24-0.26,0.46-0.43,0.64c-2.06,2.08-4.12,4.16-6.19,6.23
		c-5.91,5.95-11.84,11.89-17.74,17.85c-1.68,1.7-2.42,3.71-1.62,6.07c0.64,1.89,1.99,3.07,3.88,3.71
		c10.24,3.47,20.46,6.97,30.69,10.46c0.93,0.32,1.85,0.64,2.78,0.94c1.03,0.33,2.07,0.31,3.11,0.01c2.86-0.82,4.56-3.5,4.18-6.57
		c-1.39-11.15-2.79-22.31-4.18-33.46c-0.04-0.34-0.06-0.72,0.05-1.04C54.36,36.51,55.33,33.7,56.29,30.89z M20.9,67.53
		c0.05-0.01,0.11-0.01,0.16-0.03c0.13,0.08,0.27,0.15,0.4,0.22c-0.06-0.02-0.13-0.04-0.19-0.06C21.14,67.62,21.02,67.57,20.9,67.53z
		"/>
</g>
</svg>
