<?xml version="1.0" encoding="UTF-8"?>
<svg xmlns="http://www.w3.org/2000/svg" xmlns:xlink="http://www.w3.org/1999/xlink" width="27px" height="28px" viewBox="0 0 27 28" version="1.1">
    
    <title>Group 5</title>
    <desc>Created with Sketch.</desc>
    <g id="Topup" stroke="none" stroke-width="1" fill="none" fill-rule="evenodd">
        <g id="Top-up---Step-1" transform="translate(-44.000000, -43.000000)">
            <g id="Group-5-+-Group-12-+-Group-6-Mask">
                <g id="Group-6" transform="translate(40.000000, 40.000000)">
                    <g id="Group-5" transform="translate(18.183948, 17.207494) rotate(15.000000) translate(-18.183948, -17.207494) translate(3.183948, 3.707494)">
                        <path d="M25.2073136,9.5328498 C25.2073136,10.5963644 24.3464154,11.4585134 23.2844438,11.4585134 C23.2419584,11.4585134 23.1997949,11.4571335 23.1579955,11.4544161 C12.3802866,11.4564436 5.36670863,11.4577979 2.11726155,11.4584789 C2.09255782,11.4594209 2.0677347,11.4598961 2.04280074,11.4598961 C2.01814288,11.4598961 1.99359343,11.4594313 1.96916063,11.45851 C1.96377266,11.4585111 1.95839581,11.4585123 1.9530301,11.4585134 C1.94253078,11.4585156 1.93209355,11.4577246 1.92171842,11.4561402 C0.9161557,11.3935692 0.119930903,10.5570201 0.119930903,9.53423253 C0.119930903,8.79422021 0.536745319,8.15170156 1.1480867,7.82928698 L3.63428392,6.26031199 L13.2358181,0.243928993 C13.3183217,0.191431756 13.4096788,0.150239378 13.5088284,0.123633711 C14.0217214,-0.0139951488 14.5489117,0.29082054 14.686341,0.804458652 C14.712423,0.901939352 14.722592,0.999935765 14.7184427,1.09568185 L14.7205946,1.0969181 L14.7205946,3.23941193 L14.7218757,3.24079718 C14.718333,3.33482589 14.7286044,3.43097109 14.7541962,3.52661979 C14.8659884,3.94444003 15.2356874,4.22408141 15.6458026,4.23979316 L15.6486004,4.24281829 C19.6997708,4.24281829 22.2436656,4.24281829 23.2802849,4.24281829 C23.2911286,4.24281829 23.3021887,4.2432186 23.3134543,4.24400864 C24.3620497,4.25953938 25.2073136,5.11564405 25.2073136,6.16945753 C25.207302,6.17138028 25.2073136,6.173297 25.2073136,6.17520805 C25.2073136,6.7426934 25.2073136,7.86060382 25.2073136,9.52893931 C25.2073136,9.53023881 25.207307,9.53154225 25.2072939,9.5328496 Z" id="Combined-Shape" fill="#768AFF"/>
                        <path d="M29.226317,24.8201439 C29.226317,25.8836586 28.3654189,26.7458076 27.3034472,26.7458076 C27.2609619,26.7458076 27.2187984,26.7444277 27.1769989,26.7417103 C16.3992901,26.7437378 9.38571208,26.745092 6.136265,26.745773 C6.11156127,26.746715 6.08673815,26.7471903 6.06180419,26.7471903 C6.03714633,26.7471903 6.01259688,26.7467255 5.98816408,26.7458042 C5.98277611,26.7458053 5.97739926,26.7458064 5.97203355,26.7458076 C5.96153423,26.7458098 5.951097,26.7450187 5.94072187,26.7434344 C4.93515915,26.6808633 4.13893435,25.8443142 4.13893435,24.8215267 C4.13893435,24.0815144 4.55574877,23.4389957 5.16709015,23.1165811 L7.65328737,21.5476061 L17.2548216,15.5312231 C17.3373252,15.4787259 17.4286823,15.4375335 17.5278319,15.4109279 C18.0407248,15.273299 18.5679151,15.5781147 18.7053444,16.0917528 C18.7314264,16.1892335 18.7415954,16.2872299 18.7374461,16.382976 L18.739598,16.3842123 L18.739598,18.5267061 L18.7408792,18.5280913 C18.7373365,18.62212 18.7476078,18.7182652 18.7731996,18.8139139 C18.8849918,19.2317342 19.2546909,19.5113756 19.664806,19.5270873 L19.6676038,19.5301124 C23.7187742,19.5301124 26.2626691,19.5301124 27.2992884,19.5301124 C27.310132,19.5301124 27.3211921,19.5305128 27.3324578,19.5313028 C28.3810531,19.5468335 29.226317,20.4029382 29.226317,21.4567517 C29.2263055,21.4586744 29.226317,21.4605912 29.226317,21.4625022 C29.226317,22.0299876 29.226317,23.147898 29.226317,24.8162335 C29.226317,24.817533 29.2263105,24.8188364 29.2262973,24.8201438 Z" id="Combined-Shape" fill="#2F4BF1" transform="translate(16.682626, 21.062536) scale(-1, -1) translate(-16.682626, -21.062536) "/>
                    </g>
                </g>
            </g>
        </g>
    </g>
</svg>
