<?xml version="1.0" encoding="UTF-8"?>
<svg width="107px" height="22px" viewBox="0 0 107 22" version="1.1" xmlns="http://www.w3.org/2000/svg" xmlns:xlink="http://www.w3.org/1999/xlink">
    <!-- Generator: Sketch 59.1 (86144) - https://sketch.com -->
    <title>sesacash</title>
    <desc>Created with Sketch.</desc>
    <g id="New-Logo" stroke="none" stroke-width="1" fill="none" fill-rule="evenodd">
        <g id="Artboard" transform="translate(-272.000000, -607.000000)">
            <g id="sesacash" transform="translate(267.700008, 604.100002)">
                <g id="Group-6">
                    <g id="Group-5" transform="translate(14.694474, 14.028274) rotate(18.000000) translate(-14.694474, -14.028274) translate(2.881974, 3.201607)">
                        <path d="M1.76433394,9.21915255 L1.69005816,9.22219047 C0.808054351,9.22219047 0.0930489873,8.50474905 0.0930489873,7.61974022 C0.0930489873,7.01643501 0.425316767,6.49099951 0.916250442,6.21762706 L2.62627348,5.13801009 L10.6006761,0.131447972 C10.6695788,0.0875900817 10.7452799,0.0534279769 10.8274204,0.0313434398 C11.2533956,-0.0831848462 11.6912452,0.170468999 11.8053852,0.597895368 C11.8269692,0.678722819 11.8354319,0.759976342 11.8320833,0.839378897 L11.8338337,0.84126697 L11.8338337,2.62415354 C11.8320747,2.7046676 11.840634,2.78411502 11.8617407,2.86315501 C11.954388,3.21009644 12.2603129,3.44254701 12.6000479,3.4565381 L12.6045743,3.45914298 C15.8060794,3.47878361 17.8373058,3.48860392 18.6982536,3.48860392 C18.7272103,3.48860392 18.7580259,3.4920477 18.7903966,3.49864247 C19.6313203,3.5439983 20.2987168,4.24262547 20.2987168,5.09766254 L20.2987157,5.09570043 L20.2981833,5.40983844 C20.29687,5.87236802 20.2935867,6.5352954 20.2935867,7.64594614 L20.290415,7.68541999 C20.2694869,8.55215068 19.5627074,9.24831151 18.693883,9.24831151 L18.7020821,9.24820007 L16.1059066,9.24804265 C11.0120275,9.24635528 6.2315033,9.23672524 1.76433394,9.21915255 Z" id="Combined-Shape" fill="#6687FF"></path>
                        <path d="M5.04710507,21.6221911 L4.9728293,21.625229 C4.09082548,21.625229 3.37582012,20.9077876 3.37582012,20.0227788 C3.37582012,19.4194736 3.7080879,18.8940381 4.19902157,18.6206656 L5.90904461,17.5410486 L13.8834472,12.5344865 C13.9523499,12.4906286 14.028051,12.4564665 14.1101915,12.434382 C14.5361667,12.3198537 14.9740163,12.5735075 15.0881563,13.0009339 C15.1097404,13.0817614 15.118203,13.1630149 15.1148544,13.2424174 L15.1166048,13.2443055 L15.1166048,15.0271921 C15.1148459,15.1077062 15.1234051,15.1871536 15.1445119,15.2661936 C15.2371591,15.613135 15.543084,15.8455856 15.8828191,15.8595766 L15.8873454,15.8621815 C19.0888505,15.8818222 21.120077,15.8916425 21.9810248,15.8916425 C22.0099815,15.8916425 22.040797,15.8950862 22.0731678,15.901681 C22.9140914,15.9470368 23.581488,16.645664 23.581488,17.5007011 L23.5814868,17.498739 L23.5809544,17.812877 C23.5796411,18.2754066 23.5763578,18.9383339 23.5763578,20.0489847 L23.5731862,20.0884585 C23.552258,20.9551892 22.8454785,21.6513501 21.9766541,21.6513501 L21.9848532,21.6512386 L19.3886778,21.6510812 C14.2947987,21.6493938 9.51427443,21.6397638 5.04710507,21.6221911 Z" id="Combined-Shape" fill="#2F4BF1" transform="translate(13.478654, 17.029116) scale(-1, -1) translate(-13.478654, -17.029116) "></path>
                    </g>
                </g>
                <path d="M39.2889874,18.6959219 C39.2889874,19.8031877 38.9026299,20.6464996 38.1299033,21.2258829 C37.3571768,21.8052661 36.2013374,22.0949534 34.6623506,22.0949534 C33.8734582,22.0949534 33.2009699,22.0418441 32.6448654,21.9356238 C32.0887609,21.8294035 31.5682291,21.6732943 31.0832542,21.4672913 L31.0832542,19.0338938 C31.6328924,19.2913975 32.2520343,19.5070536 32.9406986,19.6808685 C33.6293628,19.8546835 34.2355723,19.9415897 34.7593451,19.9415897 C35.8327561,19.9415897 36.3694535,19.6325899 36.3694535,19.0145811 C36.3694535,18.7828278 36.2983249,18.5945311 36.1560656,18.4496852 C36.0138063,18.3048394 35.7680895,18.1406833 35.4189076,17.9572119 C35.0697257,17.7737406 34.6041568,17.5596938 34.022187,17.3150654 C33.1880303,16.9674354 32.5753546,16.6455606 32.1841416,16.3494314 C31.7929286,16.0533022 31.5084143,15.7137243 31.3305902,15.3306876 C31.1527661,14.9476509 31.0638553,14.4761043 31.0638553,13.9160338 C31.0638553,12.9568327 31.4372804,12.2149113 32.1841416,11.6902476 C32.9310028,11.1655838 33.9898487,10.9032559 35.3607109,10.9032559 C36.6669098,10.9032559 37.9375248,11.1865057 39.172594,11.7530138 L38.2802448,13.8774085 C37.737073,13.6456552 37.2294736,13.4557491 36.7574314,13.3076845 C36.2853892,13.1596198 35.8036548,13.0855886 35.3122136,13.0855886 C34.4392589,13.0855886 34.0027881,13.3205572 34.0027881,13.7905014 C34.0027881,14.0544427 34.1434287,14.2829738 34.4247141,14.4761015 C34.7059995,14.6692293 35.3219083,14.9556978 36.272459,15.3355158 C37.1195484,15.6767081 37.7403069,15.9953641 38.1347531,16.2914934 C38.5291993,16.5876226 38.8201798,16.9288098 39.0077034,17.3150654 C39.195227,17.7013209 39.2889874,18.1616018 39.2889874,18.6959219 Z M44.9638966,12.9986816 C44.3366625,12.9986816 43.8452287,13.1966346 43.4895805,13.5925465 C43.1339323,13.9884584 42.9302459,14.5501298 42.8785152,15.2775777 L47.0298791,15.2775777 C47.0169464,14.5501298 46.8261925,13.9884584 46.4576116,13.5925465 C46.0890307,13.1966346 45.5911307,12.9986816 44.9638966,12.9986816 Z M45.3809729,22.0949534 C43.6350635,22.0949534 42.2706881,21.61536 41.2878057,20.6561588 C40.3049234,19.6969576 39.8134896,18.3386461 39.8134896,16.5811836 C39.8134896,14.7722202 40.2677426,13.3736744 41.1762621,12.385504 C42.0847816,11.3973337 43.3408476,10.9032559 44.9444977,10.9032559 C46.4770182,10.9032559 47.6700384,11.3377868 48.5235941,12.2068618 C49.3771498,13.0759367 49.8039212,14.2765295 49.8039212,15.8086764 L49.8039212,17.2378146 L42.8106191,17.2378146 C42.8429508,18.0747016 43.0919008,18.7281074 43.5574766,19.1980516 C44.0230524,19.6679958 44.6761421,19.9029643 45.5167651,19.9029643 C46.1698646,19.9029643 46.7873899,19.8353706 47.3693597,19.7001812 C47.9513295,19.5649918 48.5591555,19.3493357 49.192856,19.0532065 L49.192856,21.3321026 C48.6755495,21.5896063 48.1226865,21.7811218 47.5342504,21.9066548 C46.9458142,22.0321878 46.2280622,22.0949534 45.3809729,22.0949534 Z M58.65055,18.6959219 C58.65055,19.8031877 58.2641925,20.6464996 57.4914659,21.2258829 C56.7187394,21.8052661 55.5629,22.0949534 54.0239132,22.0949534 C53.2350208,22.0949534 52.5625325,22.0418441 52.006428,21.9356238 C51.4503235,21.8294035 50.9297917,21.6732943 50.4448168,21.4672913 L50.4448168,19.0338938 C50.994455,19.2913975 51.6135969,19.5070536 52.3022612,19.6808685 C52.9909254,19.8546835 53.5971349,19.9415897 54.1209077,19.9415897 C55.1943187,19.9415897 55.7310161,19.6325899 55.7310161,19.0145811 C55.7310161,18.7828278 55.6598875,18.5945311 55.5176282,18.4496852 C55.3753689,18.3048394 55.129652,18.1406833 54.7804702,17.9572119 C54.4312883,17.7737406 53.9657194,17.5596938 53.3837496,17.3150654 C52.5495929,16.9674354 51.9369172,16.6455606 51.5457042,16.3494314 C51.1544912,16.0533022 50.8699769,15.7137243 50.6921528,15.3306876 C50.5143287,14.9476509 50.4254179,14.4761043 50.4254179,13.9160338 C50.4254179,12.9568327 50.798843,12.2149113 51.5457042,11.6902476 C52.2925654,11.1655838 53.3514113,10.9032559 54.7222735,10.9032559 C56.0284724,10.9032559 57.2990874,11.1865057 58.5341566,11.7530138 L57.6418074,13.8774085 C57.0986356,13.6456552 56.5910362,13.4557491 56.118994,13.3076845 C55.6469518,13.1596198 55.1652174,13.0855886 54.6737762,13.0855886 C53.8008215,13.0855886 53.3643507,13.3205572 53.3643507,13.7905014 C53.3643507,14.0544427 53.5049913,14.2829738 53.7862767,14.4761015 C54.0675621,14.6692293 54.6834709,14.9556978 55.6340216,15.3355158 C56.481111,15.6767081 57.1018695,15.9953641 57.4963157,16.2914934 C57.8907618,16.5876226 58.1817424,16.9288098 58.369266,17.3150654 C58.5567896,17.7013209 58.65055,18.1616018 58.65055,18.6959219 Z M66.7212229,21.9018266 L66.1489554,20.434063 L66.0713599,20.434063 C65.5734524,21.0585094 65.0610033,21.491431 64.5339973,21.7328407 C64.0069913,21.9742504 63.319954,22.0949534 62.4728646,22.0949534 C61.4317853,22.0949534 60.6121901,21.7988286 60.0140545,21.2065702 C59.4159188,20.6143117 59.1168555,19.7709998 59.1168555,18.6766092 C59.1168555,17.5307179 59.5193786,16.6857966 60.3244368,16.1418201 C61.129495,15.5978436 62.3435305,15.2968907 63.9665796,15.2389524 L65.8482725,15.1810143 L65.8482725,14.7078537 C65.8482725,13.6134631 65.2857102,13.066276 64.1605686,13.066276 C63.2940802,13.066276 62.2756483,13.3269945 61.1052424,13.8484395 L60.1255981,11.8592335 C61.3736,11.2090368 62.7573741,10.8839432 64.2769619,10.8839432 C65.7318864,10.8839432 66.8473118,11.1993805 67.6232716,11.8302645 C68.3992313,12.4611485 68.7872053,13.4203353 68.7872053,14.7078537 L68.7872053,21.9018266 L66.7212229,21.9018266 Z M65.8482725,16.8998428 L64.7037377,16.9384681 C63.8437156,16.9642185 63.2035584,17.1187184 62.7832469,17.4019724 C62.3629354,17.6852265 62.1527828,18.1165386 62.1527828,18.6959219 C62.1527828,19.5263713 62.6312841,19.9415897 63.5883011,19.9415897 C64.2737322,19.9415897 64.8217456,19.7452461 65.2323576,19.352553 C65.6429696,18.9598599 65.8482725,18.4384228 65.8482725,17.788226 L65.8482725,16.8998428 Z M76.1520513,22.0949534 C72.7766265,22.0949534 71.0889394,20.250611 71.0889394,16.5618709 C71.0889394,14.7271572 71.548042,13.3253926 72.466261,12.356535 C73.38448,11.3876774 74.7003587,10.9032559 76.4139364,10.9032559 C77.6684047,10.9032559 78.7935294,11.1478807 79.7893444,11.6371377 L78.9163941,13.9160338 C78.4508182,13.7293437 78.0175805,13.5764532 77.616668,13.4573577 C77.2157555,13.3382623 76.814849,13.2787154 76.4139364,13.2787154 C74.8749496,13.2787154 74.1054678,14.3666521 74.1054678,16.5425582 C74.1054678,18.6540883 74.8749496,19.7098376 76.4139364,19.7098376 C76.9829736,19.7098376 77.5099717,19.634197 77.9949465,19.4829136 C78.4799213,19.3316302 78.9648889,19.0950522 79.4498637,18.7731726 L79.4498637,21.2934772 C78.9713552,21.5960441 78.4880042,21.8052626 77.9997962,21.9211393 C77.5115882,22.037016 76.8956794,22.0949534 76.1520513,22.0949534 Z M87.724225,21.9018266 L87.1519576,20.434063 L87.074362,20.434063 C86.5764545,21.0585094 86.0640054,21.491431 85.5369995,21.7328407 C85.0099935,21.9742504 84.3229561,22.0949534 83.4758667,22.0949534 C82.4347874,22.0949534 81.6151922,21.7988286 81.0170566,21.2065702 C80.418921,20.6143117 80.1198577,19.7709998 80.1198577,18.6766092 C80.1198577,17.5307179 80.5223807,16.6857966 81.327439,16.1418201 C82.1324972,15.5978436 83.3465326,15.2968907 84.9695817,15.2389524 L86.8512747,15.1810143 L86.8512747,14.7078537 C86.8512747,13.6134631 86.2887123,13.066276 85.1635707,13.066276 C84.2970823,13.066276 83.2786505,13.3269945 82.1082445,13.8484395 L81.1286003,11.8592335 C82.3766022,11.2090368 83.7603763,10.8839432 85.2799641,10.8839432 C86.7348886,10.8839432 87.850314,11.1993805 88.6262737,11.8302645 C89.4022334,12.4611485 89.7902075,13.4203353 89.7902075,14.7078537 L89.7902075,21.9018266 L87.724225,21.9018266 Z M86.8512747,16.8998428 L85.7067398,16.9384681 C84.8467178,16.9642185 84.2065606,17.1187184 83.7862491,17.4019724 C83.3659375,17.6852265 83.1557849,18.1165386 83.1557849,18.6959219 C83.1557849,19.5263713 83.6342863,19.9415897 84.5913033,19.9415897 C85.2767344,19.9415897 85.8247477,19.7452461 86.2353597,19.352553 C86.6459718,18.9598599 86.8512747,18.4384228 86.8512747,17.788226 L86.8512747,16.8998428 Z M99.2769998,18.6959219 C99.2769998,19.8031877 98.8906423,20.6464996 98.1179158,21.2258829 C97.3451892,21.8052661 96.1893498,22.0949534 94.650363,22.0949534 C93.8614706,22.0949534 93.1889823,22.0418441 92.6328778,21.9356238 C92.0767733,21.8294035 91.5562415,21.6732943 91.0712667,21.4672913 L91.0712667,19.0338938 C91.6209048,19.2913975 92.2400467,19.5070536 92.928711,19.6808685 C93.6173753,19.8546835 94.2235847,19.9415897 94.7473575,19.9415897 C95.8207685,19.9415897 96.3574659,19.6325899 96.3574659,19.0145811 C96.3574659,18.7828278 96.2863373,18.5945311 96.1440781,18.4496852 C96.0018188,18.3048394 95.7561019,18.1406833 95.40692,17.9572119 C95.0577381,17.7737406 94.5921693,17.5596938 94.0101995,17.3150654 C93.1760427,16.9674354 92.5633671,16.6455606 92.172154,16.3494314 C91.780941,16.0533022 91.4964267,15.7137243 91.3186026,15.3306876 C91.1407785,14.9476509 91.0518678,14.4761043 91.0518678,13.9160338 C91.0518678,12.9568327 91.4252928,12.2149113 92.172154,11.6902476 C92.9190153,11.1655838 93.9778611,10.9032559 95.3487233,10.9032559 C96.6549222,10.9032559 97.9255372,11.1865057 99.1606064,11.7530138 L98.2682572,13.8774085 C97.7250854,13.6456552 97.217486,13.4557491 96.7454438,13.3076845 C96.2734017,13.1596198 95.7916672,13.0855886 95.3002261,13.0855886 C94.4272714,13.0855886 93.9908006,13.3205572 93.9908006,13.7905014 C93.9908006,14.0544427 94.1314412,14.2829738 94.4127266,14.4761015 C94.694012,14.6692293 95.3099208,14.9556978 96.2604714,15.3355158 C97.1075608,15.6767081 97.7283193,15.9953641 98.1227655,16.2914934 C98.5172117,16.5876226 98.8081922,16.9288098 98.9957158,17.3150654 C99.1832394,17.7013209 99.2769998,18.1616018 99.2769998,18.6959219 Z M110.470895,21.9018266 L107.512563,21.9018266 L107.512563,15.5962369 C107.512563,14.0383397 106.930602,13.2594028 105.766663,13.2594028 C104.938972,13.2594028 104.340846,13.5394338 103.972265,14.0995043 C103.603684,14.6595748 103.419396,15.5672616 103.419396,16.822592 L103.419396,21.9018266 L100.461065,21.9018266 L100.461065,6.87656234 L103.419396,6.87656234 L103.419396,9.93762196 C103.419396,10.1758129 103.396764,10.735875 103.3515,11.617825 L103.283604,12.4868956 L103.438795,12.4868956 C104.098361,11.4311305 105.145891,10.9032559 106.581416,10.9032559 C107.855284,10.9032559 108.821986,11.2444432 109.481551,11.9268279 C110.141117,12.6092126 110.470895,13.5877119 110.470895,14.8623551 L110.470895,21.9018266 Z" fill="#2F4BF1" fill-rule="nonzero"></path>
            </g>
        </g>
    </g>
</svg>